<?xml version="1.0" encoding="UTF-8" standalone="no"?>
<svg
   xmlns:dc="http://purl.org/dc/elements/1.1/"
   xmlns:cc="http://creativecommons.org/ns#"
   xmlns:rdf="http://www.w3.org/1999/02/22-rdf-syntax-ns#"
   xmlns:svg="http://www.w3.org/2000/svg"
   xmlns="http://www.w3.org/2000/svg"
   xmlns:sodipodi="http://sodipodi.sourceforge.net/DTD/sodipodi-0.dtd"
   xmlns:inkscape="http://www.inkscape.org/namespaces/inkscape"
   version="1.1"
   id="svg2"
   xml:space="preserve"
   width="1066.6667"
   height="1066.6667"
   viewBox="0 0 1066.6667 1066.6667"
   sodipodi:docname="Colibri - Logotipo RGB-07.eps"><metadata
     id="metadata8"><rdf:RDF><cc:Work
         rdf:about=""><dc:format>image/svg+xml</dc:format><dc:type
           rdf:resource="http://purl.org/dc/dcmitype/StillImage" /></cc:Work></rdf:RDF></metadata><defs
     id="defs6" /><sodipodi:namedview
     pagecolor="#ffffff"
     bordercolor="#666666"
     borderopacity="1"
     objecttolerance="10"
     gridtolerance="10"
     guidetolerance="10"
     inkscape:pageopacity="0"
     inkscape:pageshadow="2"
     inkscape:window-width="640"
     inkscape:window-height="480"
     id="namedview4" /><g
     id="g10"
     inkscape:groupmode="layer"
     inkscape:label="ink_ext_XXXXXX"
     transform="matrix(1.3333333,0,0,-1.3333333,0,1066.6667)"><g
       id="g12"
       transform="scale(0.1)"><path
         d="m 4180.14,5992.13 h -0.55 c -43.04,3.99 -86.45,6.54 -130.21,7.63 C 2945.03,6027 2027.74,5154.02 2000.32,4049.86 1972.9,2945.51 2845.88,2028.22 3950.22,2000.8 c 353.76,-8.72 688.29,75 980.67,229.18 l 0.18,0.19 c -131.12,119.13 -252.79,249.7 -363.38,390.08 -21.25,26.7 -42.14,53.95 -62.48,81.73 -116.23,157.63 -218.66,326.53 -305.28,505.59 l -0.37,0.55 -432.4,847.73 -153.46,300.92 h -5.81 l -1232.2,-0.18 h -1.99 c -23.61,0.72 -42.31,20.16 -41.59,43.77 0.55,23.43 19.98,42.13 43.58,41.41 l 1152.85,111.32 v 0.54 c 1.63,0 3.44,0 5.07,0.19 46.86,0.72 87,30.87 102.25,73 0.55,1.09 0.91,2.17 1.09,3.27 46.86,120.77 136.93,219.74 250.79,278.22 l 0.74,0.36 v 0.19 c 75.72,38.49 161.8,59.56 252.79,57.19 179.25,-4.35 335.06,-97.69 426.78,-236.63 l 389.18,-474.7 v -0.01 l 0.36,-0.54 10.54,-12.71 0.53,-0.74 c 11.99,-10.9 27.61,-17.98 45.23,-18.34 17.43,-0.36 33.59,5.64 45.94,16.16 l 8.9,9.09 692.65,700.27 c -310.19,574.96 -893.68,982.85 -1581.24,1044.23"
         style="fill:#211d1d;fill-opacity:1;fill-rule:nonzero;stroke:none"
         id="path14" /><path
         d="m 3981.46,4796.62 c -38.14,0.91 -73.74,-9.99 -103.16,-29.42 -47.75,-31.23 -79.9,-84.81 -81.53,-146.37 -1.64,-65.02 31.41,-122.95 82.44,-156.01 26.88,-17.43 58.85,-27.78 93.35,-28.69 99.7,-2.54 182.33,76.28 184.87,175.79 2.36,99.53 -76.27,182.34 -175.97,184.7"
         style="fill:#211d1d;fill-opacity:1;fill-rule:nonzero;stroke:none"
         id="path16" /></g></g></svg>
