<?xml version="1.0" encoding="UTF-8" standalone="no"?>
<svg
   xmlns:dc="http://purl.org/dc/elements/1.1/"
   xmlns:cc="http://creativecommons.org/ns#"
   xmlns:rdf="http://www.w3.org/1999/02/22-rdf-syntax-ns#"
   xmlns:svg="http://www.w3.org/2000/svg"
   xmlns="http://www.w3.org/2000/svg"
   xmlns:sodipodi="http://sodipodi.sourceforge.net/DTD/sodipodi-0.dtd"
   xmlns:inkscape="http://www.inkscape.org/namespaces/inkscape"
   version="1.1"
   id="svg2"
   xml:space="preserve"
   width="1583.2667"
   height="597.01331"
   viewBox="0 0 1583.2667 597.01331"
   sodipodi:docname="Colibri - Logotipo RGB-03.eps"><metadata
     id="metadata8"><rdf:RDF><cc:Work
         rdf:about=""><dc:format>image/svg+xml</dc:format><dc:type
           rdf:resource="http://purl.org/dc/dcmitype/StillImage" /></cc:Work></rdf:RDF></metadata><defs
     id="defs6"><clipPath
       clipPathUnits="userSpaceOnUse"
       id="clipPath20"><path
         d="m 2693.2,3562.38 h -0.31 c -23.69,2.2 -47.59,3.6 -71.69,4.2 -608.11,15 -1113.2,-465.69 -1128.31,-1073.7 -15.09,-608.1 465.6,-1113.2 1073.71,-1128.3 194.8,-4.8 378.99,41.31 540,126.2 l 0.1,0.11 c -72.2,65.59 -139.21,137.5 -200.1,214.79 -11.7,14.7 -23.2,29.7 -34.4,45 -64,86.8 -120.4,179.8 -168.1,278.4 l -0.2,0.3 -238.11,466.8 -84.49,165.7 h -3.21 l -678.49,-0.1 h -1.11 c -12.99,0.4 -23.3,11.1 -22.9,24.11 0.31,12.9 11.01,23.19 24.01,22.79 l 634.8,61.3 v 0.3 l 2.8,0.1 c 25.8,0.4 47.9,17 56.29,40.2 l 0.61,1.8 c 25.8,66.5 75.4,121.01 138.1,153.2 l 0.4,0.2 v 0.11 c 41.7,21.19 89.1,32.79 139.2,31.49 98.7,-2.4 184.5,-53.8 235,-130.3 l 214.29,-261.4 h 0.01 l 0.2,-0.3 5.8,-6.99 0.3,-0.41 c 6.6,-6 15.2,-9.9 24.9,-10.1 9.6,-0.2 18.49,3.1 25.3,8.9 l 4.89,5 381.41,385.6 c -170.81,316.6 -492.1,541.2 -870.7,575 z"
         id="path18" /></clipPath><radialGradient
       fx="0"
       fy="0"
       cx="0"
       cy="0"
       r="1"
       gradientUnits="userSpaceOnUse"
       gradientTransform="matrix(-1068.21,-1861.57,-1861.57,1068.21,3044.87,3390.56)"
       spreadMethod="pad"
       id="radialGradient30"><stop
         style="stop-opacity:1;stop-color:#632390"
         offset="0"
         id="stop22" /><stop
         style="stop-opacity:1;stop-color:#632390"
         offset="0.00000194"
         id="stop24" /><stop
         style="stop-opacity:1;stop-color:#4bb6e4"
         offset="0.710697"
         id="stop26" /><stop
         style="stop-opacity:1;stop-color:#75c92b"
         offset="1"
         id="stop28" /></radialGradient></defs><sodipodi:namedview
     pagecolor="#ffffff"
     bordercolor="#666666"
     borderopacity="1"
     objecttolerance="10"
     gridtolerance="10"
     guidetolerance="10"
     inkscape:pageopacity="0"
     inkscape:pageshadow="2"
     inkscape:window-width="640"
     inkscape:window-height="480"
     id="namedview4" /><g
     id="g10"
     inkscape:groupmode="layer"
     inkscape:label="ink_ext_XXXXXX"
     transform="matrix(1.3333333,0,0,-1.3333333,0,597.01333)"><g
       id="g12"
       transform="scale(0.1)"><g
         id="g14"><g
           id="g16"
           clip-path="url(#clipPath20)"><path
             d="m 2693.2,3562.38 h -0.31 c -23.69,2.2 -47.59,3.6 -71.69,4.2 -608.11,15 -1113.2,-465.69 -1128.31,-1073.7 -15.09,-608.1 465.6,-1113.2 1073.71,-1128.3 194.8,-4.8 378.99,41.31 540,126.2 l 0.1,0.11 c -72.2,65.59 -139.21,137.5 -200.1,214.79 -11.7,14.7 -23.2,29.7 -34.4,45 -64,86.8 -120.4,179.8 -168.1,278.4 l -0.2,0.3 -238.11,466.8 -84.49,165.7 h -3.21 l -678.49,-0.1 h -1.11 c -12.99,0.4 -23.3,11.1 -22.9,24.11 0.31,12.9 11.01,23.19 24.01,22.79 l 634.8,61.3 v 0.3 l 2.8,0.1 c 25.8,0.4 47.9,17 56.29,40.2 l 0.61,1.8 c 25.8,66.5 75.4,121.01 138.1,153.2 l 0.4,0.2 v 0.11 c 41.7,21.19 89.1,32.79 139.2,31.49 98.7,-2.4 184.5,-53.8 235,-130.3 l 214.29,-261.4 h 0.01 l 0.2,-0.3 5.8,-6.99 0.3,-0.41 c 6.6,-6 15.2,-9.9 24.9,-10.1 9.6,-0.2 18.49,3.1 25.3,8.9 l 4.89,5 381.41,385.6 c -170.81,316.6 -492.1,541.2 -870.7,575"
             style="fill:url(#radialGradient30);fill-opacity:1;fill-rule:nonzero;stroke:none"
             id="path32" /></g></g><path
         d="m 2583.8,2904.08 c -21,0.5 -40.6,-5.5 -56.8,-16.2 -26.3,-17.2 -44,-46.7 -44.9,-80.6 -0.9,-35.8 17.3,-67.7 45.39,-85.9 14.81,-9.6 32.41,-15.3 51.41,-15.8 54.9,-1.4 100.4,42 101.8,96.8 1.3,54.8 -42,100.4 -96.9,101.7"
         style="fill:#3a393c;fill-opacity:1;fill-rule:nonzero;stroke:none"
         id="path34" /><path
         d="m 6916.87,1523.71 v 1435.35 h 254.5 V 1523.71 h -254.5"
         style="fill:#3a393c;fill-opacity:1;fill-rule:nonzero;stroke:none"
         id="path36" /><path
         d="m 8753.25,1796.34 c 47.68,55.57 71.51,133.63 71.51,234.19 0,99.22 -23.49,175.3 -70.43,228.23 -46.96,52.9 -113.76,79.38 -200.45,79.38 -86.68,0 -153.53,-26.8 -200.46,-80.37 -46.97,-53.58 -70.43,-130.67 -70.43,-231.21 0,-100.57 23.46,-177.97 70.43,-232.2 46.93,-54.27 113.78,-81.37 200.46,-81.37 85.22,0 151.69,27.79 199.37,83.35 z m 81.49,684.26 c 66.48,-42.09 118.39,-101.79 155.74,-179.16 37.32,-77.37 55.99,-167.65 55.99,-270.78 0,-103.17 -18.67,-194.43 -55.99,-273.84 -37.35,-79.4 -89.58,-140.83 -156.77,-184.26 -67.19,-43.44 -143.54,-65.14 -229.04,-65.14 -71.97,0 -136.1,15.61 -192.41,46.82 -56.32,31.22 -99.44,74.63 -129.27,130.31 v -160.84 h -250.42 v 1435.35 h 254.49 v -584.33 c 29.83,54.27 72.59,96.01 128.26,125.22 55.64,29.17 118.76,43.78 189.35,43.78 86.84,0 163.54,-21.07 230.07,-63.13"
         style="fill:#3a393c;fill-opacity:1;fill-rule:nonzero;stroke:none"
         id="path38" /><path
         d="m 9936.63,2317.83 c -378.39,0 -385.24,-253.02 -385.24,-447.61 v -346.51 h -254.51 v 995.57 h 242.29 v -136 c 80,175.28 397.01,156.47 397.01,156.47 l 0.45,-221.92"
         style="fill:#3a393c;fill-opacity:1;fill-rule:nonzero;stroke:none"
         id="path40" /><path
         d="m 5344.9,1867.05 c -88.7,-81.79 -206.88,-131.73 -336.69,-131.73 -275.32,0 -498.51,224.53 -498.51,501.51 0,276.98 223.19,501.53 498.51,501.53 128.79,0 246.15,-49.14 334.62,-129.8 l 154.91,154.92 c -135.27,136.82 -323.05,221.62 -530.65,221.62 -412.15,0 -746.26,-334.11 -746.26,-746.26 0,-412.14 334.11,-746.26 746.26,-746.26 207.6,0 395.38,84.8 530.66,221.62 l -152.85,152.85"
         style="fill:#3a393c;fill-opacity:1;fill-rule:nonzero;stroke:none"
         id="path42" /><path
         d="m 6346.8,1786.34 c 43.42,54.28 65.15,134.38 65.15,240.25 0,104.5 -21.73,184.25 -65.15,239.23 -43.45,54.96 -105.87,82.45 -187.31,82.45 -81.43,0 -144.23,-27.49 -188.32,-82.45 -44.13,-54.98 -66.17,-134.73 -66.17,-239.23 0,-105.87 21.7,-185.97 65.16,-240.25 43.41,-54.3 105.86,-81.43 187.3,-81.43 82.77,0 145.89,27.13 189.34,81.43 z m -455.03,-215.81 c -76.7,42.05 -136.09,102.46 -178.15,181.2 -42.09,78.71 -63.12,170.33 -63.12,274.86 0,104.5 21.03,195.77 63.12,273.84 42.06,78.02 101.45,138.08 178.15,180.17 76.66,42.06 165.92,63.13 267.72,63.13 101.81,0 191.04,-21.07 267.74,-63.13 76.66,-42.09 135.7,-102.15 177.12,-180.17 41.39,-78.07 62.09,-169.34 62.09,-273.84 0,-104.53 -20.7,-196.15 -62.09,-274.86 -41.42,-78.74 -100.46,-139.15 -177.12,-181.2 -76.7,-42.09 -165.93,-63.11 -267.74,-63.11 -101.8,0 -191.06,21.02 -267.72,63.11"
         style="fill:#3a393c;fill-opacity:1;fill-rule:nonzero;stroke:none"
         id="path44" /><path
         d="m 7474.72,1523.71 v 995.57 h 254.49 v -995.57 h -254.49"
         style="fill:#3a393c;fill-opacity:1;fill-rule:nonzero;stroke:none"
         id="path46" /><path
         d="m 7739.36,2843.03 c 0,76.45 -61.97,138.42 -138.41,138.42 -76.46,0 -138.42,-61.97 -138.42,-138.42 0,-76.45 61.96,-138.42 138.42,-138.42 76.44,0 138.41,61.97 138.41,138.42"
         style="fill:#3a393c;fill-opacity:1;fill-rule:nonzero;stroke:none"
         id="path48" /><path
         d="m 10117.4,1523.71 v 995.57 h 254.5 v -995.57 h -254.5"
         style="fill:#3a393c;fill-opacity:1;fill-rule:nonzero;stroke:none"
         id="path50" /><path
         d="m 10382,2843.03 c 0,76.45 -62,138.42 -138.4,138.42 -76.5,0 -138.4,-61.97 -138.4,-138.42 0,-76.45 61.9,-138.42 138.4,-138.42 76.4,0 138.4,61.97 138.4,138.42"
         style="fill:#3a393c;fill-opacity:1;fill-rule:nonzero;stroke:none"
         id="path52" /></g></g></svg>
