<?xml version="1.0" encoding="UTF-8" standalone="no"?>
<svg
   xmlns:dc="http://purl.org/dc/elements/1.1/"
   xmlns:cc="http://creativecommons.org/ns#"
   xmlns:rdf="http://www.w3.org/1999/02/22-rdf-syntax-ns#"
   xmlns:svg="http://www.w3.org/2000/svg"
   xmlns="http://www.w3.org/2000/svg"
   xmlns:sodipodi="http://sodipodi.sourceforge.net/DTD/sodipodi-0.dtd"
   xmlns:inkscape="http://www.inkscape.org/namespaces/inkscape"
   version="1.1"
   id="svg2"
   xml:space="preserve"
   width="972.93335"
   height="839.73334"
   viewBox="0 0 972.93335 839.73334"
   sodipodi:docname="Colibri - Logotipo RGB-04.eps"><metadata
     id="metadata8"><rdf:RDF><cc:Work
         rdf:about=""><dc:format>image/svg+xml</dc:format><dc:type
           rdf:resource="http://purl.org/dc/dcmitype/StillImage" /></cc:Work></rdf:RDF></metadata><defs
     id="defs6" /><sodipodi:namedview
     pagecolor="#ffffff"
     bordercolor="#666666"
     borderopacity="1"
     objecttolerance="10"
     gridtolerance="10"
     guidetolerance="10"
     inkscape:pageopacity="0"
     inkscape:pageshadow="2"
     inkscape:window-width="640"
     inkscape:window-height="480"
     id="namedview4" /><g
     id="g10"
     inkscape:groupmode="layer"
     inkscape:label="ink_ext_XXXXXX"
     transform="matrix(1.3333333,0,0,-1.3333333,0,839.73333)"><g
       id="g12"
       transform="scale(0.1)"><path
         d="m 3644.5,4443.33 c -21,0.5 -40.6,-5.5 -56.8,-16.2 -26.3,-17.2 -44,-46.7 -44.9,-80.6 -0.9,-35.8 17.3,-67.7 45.4,-85.9 14.8,-9.6 32.4,-15.3 51.4,-15.8 54.9,-1.4 100.4,42 101.8,96.8 1.3,54.8 -42,100.4 -96.9,101.7 z m 109.4,658.3 h -0.3 c -23.7,2.2 -47.6,3.6 -71.7,4.2 -608.1,15 -1113.2,-465.7 -1128.3,-1073.7 -15.1,-608.1 465.6,-1113.2 1073.7,-1128.3 194.8,-4.8 379,41.3 540,126.2 l 0.1,0.1 c -72.2,65.6 -139.2,137.5 -200.1,214.8 -11.7,14.7 -23.2,29.7 -34.4,45 -64,86.8 -120.4,179.8 -168.1,278.4 l -0.2,0.3 -238.1,466.8 -84.5,165.7 h -3.2 l -678.5,-0.1 h -1.1 c -13,0.4 -23.3,11.1 -22.9,24.1 0.3,12.91 11,23.2 24,22.8 l 634.8,61.3 v 0.3 c 0.9,0 1.9,0 2.8,0.1 25.8,0.4 47.9,17 56.3,40.2 l 0.6,1.8 c 25.8,66.5 75.4,121 138.1,153.2 l 0.4,0.2 v 0.1 c 41.7,21.2 89.1,32.8 139.2,31.5 98.7,-2.4 184.5,-53.8 235,-130.3 l 214.29,-261.4 h 0.01 l 0.2,-0.3 5.8,-7 0.3,-0.4 c 6.6,-6 15.2,-9.9 24.9,-10.1 9.6,-0.2 18.5,3.1 25.3,8.9 l 4.9,5 381.4,385.6 c -170.8,316.6 -492.1,541.2 -870.7,575"
         style="fill:#211d1d;fill-opacity:1;fill-rule:nonzero;stroke:none"
         id="path14" /><path
         d="m 3346.1,1216.77 v 1146.24 h 203.23 V 1216.77 H 3346.1"
         style="fill:#211d1d;fill-opacity:1;fill-rule:nonzero;stroke:none"
         id="path16" /><path
         d="m 4812.6,1434.49 c 38.06,44.38 57.1,106.71 57.1,187.01 0,79.25 -18.76,139.99 -56.24,182.27 -37.51,42.24 -90.86,63.39 -160.08,63.39 -69.22,0 -122.6,-21.4 -160.08,-64.18 -37.51,-42.8 -56.25,-104.36 -56.25,-184.64 0,-80.31 18.74,-142.12 56.25,-185.43 37.48,-43.34 90.86,-64.98 160.08,-64.98 68.06,0 121.14,22.19 159.22,66.56 z m 65.06,546.44 c 53.1,-33.62 94.55,-81.29 124.38,-143.08 29.8,-61.79 44.72,-133.89 44.72,-216.24 0,-82.39 -14.92,-155.27 -44.72,-218.68 -29.83,-63.41 -71.53,-112.46 -125.2,-147.14 -53.64,-34.71 -114.62,-52.03 -182.91,-52.03 -57.46,0 -108.67,12.47 -153.64,37.39 -44.99,24.93 -79.41,59.61 -103.24,104.06 v -128.44 h -199.98 v 1146.24 h 203.23 v -466.63 c 23.83,43.34 57.97,76.67 102.43,100 44.44,23.29 94.84,34.95 151.2,34.95 69.36,0 130.61,-16.82 183.73,-50.4"
         style="fill:#211d1d;fill-opacity:1;fill-rule:nonzero;stroke:none"
         id="path18" /><path
         d="m 5757.61,1850.94 c -302.17,0 -307.64,-202.06 -307.64,-357.45 v -276.72 h -203.24 v 795.04 h 193.48 V 1903.2 c 63.89,139.98 317.04,124.96 317.04,124.96 l 0.36,-177.22"
         style="fill:#211d1d;fill-opacity:1;fill-rule:nonzero;stroke:none"
         id="path20" /><path
         d="m 2090.76,1490.96 c -70.84,-65.33 -165.22,-105.2 -268.88,-105.2 -219.86,0 -398.09,179.31 -398.09,400.5 0,221.19 178.23,400.5 398.09,400.5 102.84,0 196.57,-39.24 267.22,-103.65 l 123.71,123.71 c -108.03,109.26 -257.98,176.99 -423.77,176.99 -329.13,0 -595.95,-266.82 -595.95,-595.95 0,-329.13 266.82,-595.95 595.95,-595.95 165.79,0 315.74,67.73 423.78,176.98 l -122.06,122.07"
         style="fill:#211d1d;fill-opacity:1;fill-rule:nonzero;stroke:none"
         id="path22" /><path
         d="m 2890.85,1426.5 c 34.67,43.34 52.03,107.32 52.03,191.86 0,83.45 -17.36,147.14 -52.03,191.04 -34.7,43.89 -84.54,65.84 -149.57,65.84 -65.04,0 -115.19,-21.95 -150.4,-65.84 -35.24,-43.9 -52.85,-107.59 -52.85,-191.04 0,-84.54 17.34,-148.52 52.04,-191.86 34.67,-43.36 84.55,-65.03 149.58,-65.03 66.1,0 116.5,21.67 151.2,65.03 z m -363.38,-172.34 c -61.25,33.58 -108.67,81.82 -142.26,144.71 -33.61,62.85 -50.41,136.01 -50.41,219.49 0,83.45 16.8,156.34 50.41,218.68 33.59,62.31 81.01,110.27 142.26,143.89 61.23,33.58 132.51,50.4 213.81,50.4 81.29,0 152.55,-16.82 213.8,-50.4 61.22,-33.62 108.37,-81.58 141.45,-143.89 33.05,-62.34 49.59,-135.23 49.59,-218.68 0,-83.48 -16.54,-156.64 -49.59,-219.49 -33.08,-62.89 -80.23,-111.13 -141.45,-144.71 -61.25,-33.61 -132.51,-50.4 -213.8,-50.4 -81.3,0 -152.58,16.79 -213.81,50.4"
         style="fill:#211d1d;fill-opacity:1;fill-rule:nonzero;stroke:none"
         id="path24" /><path
         d="m 3791.58,1216.77 v 795.04 h 203.24 v -795.04 h -203.24"
         style="fill:#211d1d;fill-opacity:1;fill-rule:nonzero;stroke:none"
         id="path26" /><path
         d="m 4002.93,2270.35 c 0,61.05 -49.49,110.54 -110.55,110.54 -61.04,0 -110.54,-49.49 -110.54,-110.54 0,-61.05 49.5,-110.54 110.54,-110.54 61.06,0 110.55,49.49 110.55,110.54"
         style="fill:#211d1d;fill-opacity:1;fill-rule:nonzero;stroke:none"
         id="path28" /><path
         d="m 5901.95,1216.77 v 795.04 h 203.23 v -795.04 h -203.23"
         style="fill:#211d1d;fill-opacity:1;fill-rule:nonzero;stroke:none"
         id="path30" /><path
         d="m 6113.29,2270.35 c 0,61.05 -49.49,110.54 -110.54,110.54 -61.05,0 -110.54,-49.49 -110.54,-110.54 0,-61.05 49.49,-110.54 110.54,-110.54 61.05,0 110.54,49.49 110.54,110.54"
         style="fill:#211d1d;fill-opacity:1;fill-rule:nonzero;stroke:none"
         id="path32" /></g></g></svg>
